<svg width="39" height="54" viewBox="0 0 39 54" fill="none" xmlns="http://www.w3.org/2000/svg">
<path d="M6.136 9.216C4.42933 9.216 3.10667 8.74667 2.168 7.808C1.272 6.82667 0.824 5.65333 0.824 4.288C0.824 3.94666 0.866667 3.54133 0.952001 3.072C1.08 2.60266 1.22933 2.19733 1.4 1.856C1.95467 2.112 2.76533 2.304 3.832 2.432C4.94133 2.51733 6.22133 2.56 7.672 2.56C9.848 2.56 12.3013 2.47466 15.032 2.304C17.8053 2.09066 20.4507 1.87733 22.968 1.664C25.4853 1.45066 27.704 1.25866 29.624 1.088C31.544 0.874664 32.7813 0.767998 33.336 0.767998C34.9147 0.767998 36.0453 1.36533 36.728 2.56C37.4533 3.712 37.9867 5.26933 38.328 7.232C37.2187 7.14666 36.1093 7.08266 35 7.04C33.9333 6.95466 33.016 6.912 32.248 6.912C30.8827 6.912 29.496 6.95466 28.088 7.04C26.7227 7.12533 25.336 7.25333 23.928 7.424C23.3307 8.66133 22.6693 10.1333 21.944 11.84C21.2187 13.504 20.4933 15.2533 19.768 17.088C19.0853 18.9227 18.424 20.7573 17.784 22.592C17.144 24.384 16.5893 26.0053 16.12 27.456C15.1813 30.272 14.3493 32.8747 13.624 35.264C12.9413 37.6533 12.3227 39.8933 11.768 41.984C11.256 44.032 10.808 45.9947 10.424 47.872C10.04 49.7493 9.69867 51.584 9.4 53.376C6.54133 52.9493 4.152 51.1573 2.232 48C2.57333 46.6773 2.97867 45.248 3.448 43.712C3.96 42.1333 4.536 40.3627 5.176 38.4C5.85867 36.3947 6.648 34.1333 7.544 31.616C8.44 29.0987 9.464 26.24 10.616 23.04C11.0427 21.8453 11.4907 20.608 11.96 19.328C12.4293 18.0053 12.8773 16.704 13.304 15.424C13.7733 14.144 14.1787 12.9067 14.52 11.712C14.904 10.5173 15.224 9.42933 15.48 8.448C13.688 8.66133 11.9813 8.85333 10.36 9.024C8.78133 9.152 7.37333 9.216 6.136 9.216Z" fill="#9C08DD"/>
</svg>
