<svg width="352" height="98" viewBox="0 0 352 98" fill="none" xmlns="http://www.w3.org/2000/svg">
<path d="M19 10.9V27.6H33.8V29.6H19V68.3C19 71.4333 19.5667 73.6333 20.7 74.9C21.8333 76.1667 23.4 76.8 25.4 76.8C27.4 76.8 29.1333 76 30.6 74.4C32.0667 72.7333 33.3333 69.9667 34.4 66.1L36.4 66.6C35.7333 70.4667 34.4 73.7333 32.4 76.4C30.4667 79.0667 27.4667 80.4 23.4 80.4C21.1333 80.4 19.2667 80.1 17.8 79.5C16.3333 78.9667 15.0333 78.1667 13.9 77.1C12.4333 75.5667 11.4 73.7333 10.8 71.6C10.2667 69.4667 10 66.6333 10 63.1V29.6H0.4V27.6H10V12.3C11.6667 12.2333 13.2667 12.1 14.8 11.9C16.3333 11.7 17.7333 11.3667 19 10.9ZM57.9516 0.699995V38.1C59.6849 33.5667 62.0849 30.4333 65.1516 28.7C68.2849 26.9667 71.5516 26.1 74.9516 26.1C77.4849 26.1 79.5849 26.4333 81.2516 27.1C82.9849 27.7667 84.4182 28.7 85.5516 29.9C86.8182 31.2333 87.7182 32.9 88.2516 34.9C88.7849 36.9 89.0516 39.6 89.0516 43V69.7C89.0516 72.5 89.6182 74.4 90.7516 75.4C91.9516 76.4 93.9182 76.9 96.6516 76.9V79C95.5182 78.9333 93.7849 78.8667 91.4516 78.8C89.1182 78.6667 86.8516 78.6 84.6516 78.6C82.4516 78.6 80.2849 78.6667 78.1516 78.8C76.0849 78.8667 74.5182 78.9333 73.4516 79V76.9C75.8516 76.9 77.5516 76.4 78.5516 75.4C79.5516 74.4 80.0516 72.5 80.0516 69.7V40.8C80.0516 38.7333 79.8849 36.8333 79.5516 35.1C79.2182 33.3667 78.4516 31.9667 77.2516 30.9C76.1182 29.8333 74.3516 29.3 71.9516 29.3C69.2182 29.3 66.7849 30.0667 64.6516 31.6C62.5849 33.1333 60.9516 35.2667 59.7516 38C58.5516 40.7333 57.9516 43.8667 57.9516 47.4V69.7C57.9516 72.5 58.4516 74.4 59.4516 75.4C60.4516 76.4 62.1516 76.9 64.5516 76.9V79C63.4849 78.9333 61.8849 78.8667 59.7516 78.8C57.6849 78.6667 55.5516 78.6 53.3516 78.6C51.1516 78.6 48.8849 78.6667 46.5516 78.8C44.2182 78.8667 42.4849 78.9333 41.3516 79V76.9C44.0849 76.9 46.0182 76.4 47.1516 75.4C48.3516 74.4 48.9516 72.5 48.9516 69.7V12.7C48.9516 9.7 48.4182 7.5 47.3516 6.1C46.2849 4.63333 44.2849 3.9 41.3516 3.9V1.8C43.4849 2 45.5516 2.09999 47.5516 2.09999C49.4849 2.09999 51.3182 2 53.0516 1.8C54.8516 1.53333 56.4849 1.16666 57.9516 0.699995ZM136.141 26.1C137.941 26.1 139.507 26.4667 140.841 27.2C142.241 27.9333 143.307 28.9 144.041 30.1C144.841 31.2333 145.241 32.5333 145.241 34C145.241 35.6667 144.707 37.1333 143.641 38.4C142.641 39.6667 141.274 40.3 139.541 40.3C138.141 40.3 136.907 39.8667 135.841 39C134.774 38.0667 134.241 36.7667 134.241 35.1C134.241 33.8333 134.574 32.7667 135.241 31.9C135.974 30.9667 136.774 30.2333 137.641 29.7C137.174 29.0333 136.474 28.7 135.541 28.7C133.474 28.7 131.574 29.3333 129.841 30.6C128.107 31.8 126.641 33.3667 125.441 35.3C124.241 37.2333 123.307 39.3 122.641 41.5C121.974 43.6333 121.641 45.6333 121.641 47.5V68.7C121.641 71.9667 122.574 74.1667 124.441 75.3C126.374 76.3667 128.974 76.9 132.241 76.9V79C130.707 78.9333 128.541 78.8667 125.741 78.8C122.941 78.6667 119.974 78.6 116.841 78.6C114.574 78.6 112.307 78.6667 110.041 78.8C107.841 78.8667 106.174 78.9333 105.041 79V76.9C107.774 76.9 109.707 76.4 110.841 75.4C112.041 74.4 112.641 72.5 112.641 69.7V38.4C112.641 35.4 112.107 33.2 111.041 31.8C109.974 30.3333 107.974 29.6 105.041 29.6V27.5C107.174 27.7 109.241 27.8 111.241 27.8C113.174 27.8 115.007 27.7 116.741 27.5C118.541 27.2333 120.174 26.8667 121.641 26.4V38.9C122.374 36.9667 123.407 35.0333 124.741 33.1C126.141 31.1 127.807 29.4333 129.741 28.1C131.674 26.7667 133.807 26.1 136.141 26.1ZM200.072 27.5V29.5C198.805 29.6333 197.639 30.2 196.572 31.2C195.505 32.2 194.505 33.9667 193.572 36.5L177.172 79.5H175.472L157.072 35.2C155.805 32.6 154.539 31.0333 153.272 30.5C152.072 29.9 151.072 29.6 150.272 29.6V27.5C151.739 27.7 153.272 27.8667 154.872 28C156.472 28.0667 158.205 28.1 160.072 28.1C162.139 28.1 164.305 28.0333 166.572 27.9C168.905 27.7667 171.072 27.6333 173.072 27.5V29.6C171.405 29.6 169.905 29.7333 168.572 30C167.305 30.2 166.505 30.9 166.172 32.1C165.839 33.2333 166.239 35.2 167.372 38L179.672 68.5L179.072 68.7L190.472 38.9C191.339 36.7 191.672 34.9667 191.472 33.7C191.339 32.3667 190.672 31.3667 189.472 30.7C188.272 30.0333 186.472 29.6333 184.072 29.5V27.5C185.272 27.5667 186.305 27.6333 187.172 27.7C188.039 27.7 188.872 27.7333 189.672 27.8C190.539 27.8 191.472 27.8 192.472 27.8C194.005 27.8 195.372 27.7667 196.572 27.7C197.839 27.6333 199.005 27.5667 200.072 27.5ZM177.172 79.5L173.772 88.2C173.105 89.8667 172.405 91.2667 171.672 92.4C171.005 93.5333 170.272 94.4667 169.472 95.2C168.405 96.2 167.139 96.8667 165.672 97.2C164.205 97.6 162.872 97.8 161.672 97.8C160.405 97.8 159.239 97.5667 158.172 97.1C157.172 96.6333 156.372 95.9333 155.772 95C155.172 94.1333 154.872 93.0667 154.872 91.8C154.872 90.2 155.339 88.9 156.272 87.9C157.205 86.9667 158.505 86.5 160.172 86.5C161.572 86.5 162.772 86.9 163.772 87.7C164.772 88.5 165.272 89.6667 165.272 91.2C165.272 92.3333 165.005 93.2667 164.472 94C163.939 94.7333 163.305 95.3 162.572 95.7C162.705 95.7667 162.805 95.8 162.872 95.8C163.005 95.8 163.105 95.8 163.172 95.8C164.972 95.8 166.572 95.1667 167.972 93.9C169.372 92.7 170.605 90.7333 171.672 88L175.272 78.7L177.172 79.5ZM225.179 26.1C227.846 26.1 230.112 26.5333 231.979 27.4C233.846 28.2667 235.212 29.0667 236.079 29.8C238.279 31.6 239.612 30.4 240.079 26.2H242.379C242.246 28.0667 242.146 30.3 242.079 32.9C242.012 35.4333 241.979 38.8667 241.979 43.2H239.679C239.279 40.7333 238.579 38.3333 237.579 36C236.646 33.6667 235.246 31.7667 233.379 30.3C231.512 28.7667 229.079 28 226.079 28C223.746 28 221.779 28.6667 220.179 30C218.646 31.2667 217.879 33.1667 217.879 35.7C217.879 37.7 218.479 39.4333 219.679 40.9C220.879 42.3 222.446 43.6333 224.379 44.9C226.312 46.1 228.412 47.4333 230.679 48.9C233.212 50.5 235.512 52.1333 237.579 53.8C239.646 55.4667 241.279 57.3 242.479 59.3C243.746 61.3 244.379 63.6667 244.379 66.4C244.379 69.4667 243.579 72.0333 241.979 74.1C240.379 76.1667 238.279 77.7333 235.679 78.8C233.146 79.8667 230.346 80.4 227.279 80.4C225.812 80.4 224.412 80.2667 223.079 80C221.812 79.8 220.579 79.4667 219.379 79C218.712 78.6667 218.012 78.2667 217.279 77.8C216.612 77.3333 215.946 76.8333 215.279 76.3C214.612 75.7667 214.012 75.8 213.479 76.4C212.946 76.9333 212.546 78.0333 212.279 79.7H209.979C210.112 77.5667 210.212 74.9667 210.279 71.9C210.346 68.8333 210.379 64.7667 210.379 59.7H212.679C213.146 63.4333 213.812 66.7 214.679 69.5C215.546 72.3 216.912 74.5 218.779 76.1C220.646 77.6333 223.246 78.4 226.579 78.4C227.912 78.4 229.246 78.1 230.579 77.5C231.979 76.9 233.146 75.9 234.079 74.5C235.012 73.1 235.479 71.2333 235.479 68.9C235.479 65.9667 234.412 63.5667 232.279 61.7C230.146 59.8333 227.446 57.8667 224.179 55.8C221.779 54.2667 219.512 52.7333 217.379 51.2C215.312 49.6667 213.612 47.9333 212.279 46C211.012 44.0667 210.379 41.7333 210.379 39C210.379 36 211.046 33.5667 212.379 31.7C213.779 29.7667 215.612 28.3667 217.879 27.5C220.146 26.5667 222.579 26.1 225.179 26.1ZM273.905 26.1C276.572 26.1 278.839 26.5333 280.705 27.4C282.572 28.2667 283.939 29.0667 284.805 29.8C287.005 31.6 288.339 30.4 288.805 26.2H291.105C290.972 28.0667 290.872 30.3 290.805 32.9C290.739 35.4333 290.705 38.8667 290.705 43.2H288.405C288.005 40.7333 287.305 38.3333 286.305 36C285.372 33.6667 283.972 31.7667 282.105 30.3C280.239 28.7667 277.805 28 274.805 28C272.472 28 270.505 28.6667 268.905 30C267.372 31.2667 266.605 33.1667 266.605 35.7C266.605 37.7 267.205 39.4333 268.405 40.9C269.605 42.3 271.172 43.6333 273.105 44.9C275.039 46.1 277.139 47.4333 279.405 48.9C281.939 50.5 284.239 52.1333 286.305 53.8C288.372 55.4667 290.005 57.3 291.205 59.3C292.472 61.3 293.105 63.6667 293.105 66.4C293.105 69.4667 292.305 72.0333 290.705 74.1C289.105 76.1667 287.005 77.7333 284.405 78.8C281.872 79.8667 279.072 80.4 276.005 80.4C274.539 80.4 273.139 80.2667 271.805 80C270.539 79.8 269.305 79.4667 268.105 79C267.439 78.6667 266.739 78.2667 266.005 77.8C265.339 77.3333 264.672 76.8333 264.005 76.3C263.339 75.7667 262.739 75.8 262.205 76.4C261.672 76.9333 261.272 78.0333 261.005 79.7H258.705C258.839 77.5667 258.939 74.9667 259.005 71.9C259.072 68.8333 259.105 64.7667 259.105 59.7H261.405C261.872 63.4333 262.539 66.7 263.405 69.5C264.272 72.3 265.639 74.5 267.505 76.1C269.372 77.6333 271.972 78.4 275.305 78.4C276.639 78.4 277.972 78.1 279.305 77.5C280.705 76.9 281.872 75.9 282.805 74.5C283.739 73.1 284.205 71.2333 284.205 68.9C284.205 65.9667 283.139 63.5667 281.005 61.7C278.872 59.8333 276.172 57.8667 272.905 55.8C270.505 54.2667 268.239 52.7333 266.105 51.2C264.039 49.6667 262.339 47.9333 261.005 46C259.739 44.0667 259.105 41.7333 259.105 39C259.105 36 259.772 33.5667 261.105 31.7C262.505 29.7667 264.339 28.3667 266.605 27.5C268.872 26.5667 271.305 26.1 273.905 26.1ZM318.932 79.7C316.199 79.7 313.832 79.2 311.832 78.2C309.832 77.1333 308.299 75.6667 307.232 73.8C306.232 71.9333 305.732 69.7667 305.732 67.3C305.732 64.3667 306.399 61.9667 307.732 60.1C309.132 58.2333 310.899 56.7333 313.032 55.6C315.165 54.4667 317.399 53.5333 319.732 52.8C322.132 52 324.399 51.2667 326.532 50.6C328.665 49.8667 330.399 49.0333 331.732 48.1C333.132 47.1667 333.832 45.9333 333.832 44.4V38.2C333.832 35.4 333.399 33.2667 332.532 31.8C331.732 30.3333 330.632 29.3667 329.232 28.9C327.832 28.3667 326.265 28.1 324.532 28.1C322.865 28.1 321.065 28.3333 319.132 28.8C317.265 29.2667 315.765 30.2333 314.632 31.7C315.899 31.9667 316.999 32.6333 317.932 33.7C318.865 34.7667 319.332 36.1333 319.332 37.8C319.332 39.4667 318.799 40.8 317.732 41.8C316.665 42.7333 315.299 43.2 313.632 43.2C311.699 43.2 310.265 42.6 309.332 41.4C308.465 40.1333 308.032 38.7333 308.032 37.2C308.032 35.4667 308.465 34.0667 309.332 33C310.199 31.9333 311.299 30.9333 312.632 30C314.165 28.9333 316.132 28.0333 318.532 27.3C320.999 26.5 323.765 26.1 326.832 26.1C329.565 26.1 331.899 26.4333 333.832 27.1C335.765 27.7 337.365 28.6 338.632 29.8C340.365 31.4 341.499 33.3667 342.032 35.7C342.565 37.9667 342.832 40.7 342.832 43.9V71.7C342.832 73.3667 343.065 74.5667 343.532 75.3C344.065 76.0333 344.865 76.4 345.932 76.4C346.665 76.4 347.365 76.2333 348.032 75.9C348.699 75.5667 349.499 75.0333 350.432 74.3L351.532 76C350.132 77.0667 348.799 77.9667 347.532 78.7C346.265 79.3667 344.565 79.7 342.432 79.7C340.499 79.7 338.899 79.3667 337.632 78.7C336.365 78.0333 335.399 77.0667 334.732 75.8C334.132 74.4667 333.832 72.8 333.832 70.8C332.032 73.8 329.865 76.0333 327.332 77.5C324.865 78.9667 322.065 79.7 318.932 79.7ZM322.532 75.7C324.732 75.7 326.765 75.0667 328.632 73.8C330.565 72.5333 332.299 70.6333 333.832 68.1V48.5C333.032 49.6333 331.865 50.6 330.332 51.4C328.799 52.1333 327.132 52.9 325.332 53.7C323.532 54.4333 321.799 55.3333 320.132 56.4C318.532 57.4 317.199 58.7333 316.132 60.4C315.065 62.0667 314.532 64.2333 314.532 66.9C314.532 69.5667 315.232 71.7 316.632 73.3C318.099 74.9 320.065 75.7 322.532 75.7Z" fill="url(#paint0_linear_1_3)"/>
<defs>
<linearGradient id="paint0_linear_1_3" x1="176" y1="43" x2="176" y2="104" gradientUnits="userSpaceOnUse">
<stop stop-color="#54336C"/>
<stop offset="1" stop-color="#999999"/>
</linearGradient>
</defs>
</svg>
